<svg xmlns="http://www.w3.org/2000/svg"
     viewBox="0 0 172 152">
  <path id="Imported Path"
        fill="currentColor" stroke="currentColor" stroke-width="1"
        d="M 148.80,83.90
           C 150.00,85.00 151.00,86.50 151.00,87.30
             151.00,89.10 153.70,90.30 154.60,88.90
             155.40,87.50 150.10,82.00 148.10,82.00
             146.90,82.10 147.00,82.50 148.80,83.90 Z
           M 0.00,42.00
           C 0.00,43.10 0.50,44.00 1.10,44.00
             1.70,44.00 2.00,44.60 1.70,45.30
             1.20,46.60 5.80,50.90 9.10,52.20
             11.00,53.00 12.90,51.20 11.30,50.10
             10.80,49.80 9.80,48.00 9.10,46.20
             6.80,40.70 0.00,37.50 0.00,42.00 Z
           M 147.20,29.20
           C 145.20,31.20 145.80,32.00 149.50,32.00
             152.10,32.00 153.00,31.60 153.00,30.40
             153.00,29.00 152.70,29.00 151.50,30.00
             150.30,31.00 150.00,31.00 150.00,29.60
             150.00,27.70 148.90,27.50 147.20,29.20 Z
           M 0.00,13.50
           C 0.00,16.50 2.10,19.00 4.50,19.00
             5.80,19.00 5.90,18.60 4.90,16.70
             4.30,15.50 2.90,13.70 1.90,12.70
             0.10,11.00 0.00,11.00 0.00,13.50 Z
           M 51.70,51.70
           C 50.50,52.80 50.90,54.00 52.60,54.00
             53.40,54.00 53.90,54.40 53.60,54.80
             53.40,55.20 54.00,55.70 55.10,55.70
             57.50,55.90 57.50,55.50 55.00,53.00
             52.80,50.80 52.60,50.70 51.70,51.70 Z
           M 72.60,4.90
           C 72.30,5.30 70.30,6.00 68.10,6.30
             65.30,6.60 61.80,8.70 55.40,13.60
             38.70,26.50 36.50,29.50 34.30,43.00
             33.60,47.70 32.80,52.40 32.60,53.50
             32.40,54.60 31.90,57.50 31.50,60.00
             31.10,62.50 30.30,64.80 29.70,65.20
             28.70,65.80 30.90,75.50 33.50,81.50
             34.20,83.10 35.10,86.30 35.40,88.50
             35.70,90.70 36.60,93.00 37.50,93.60
             38.30,94.20 39.00,95.10 39.00,95.60
             39.00,96.50 47.40,102.00 48.90,102.00
             49.30,102.00 50.70,103.20 52.10,104.60
             53.40,106.00 56.20,107.90 58.30,108.70
             60.30,109.50 62.00,110.80 62.00,111.60
             62.00,112.40 61.40,112.70 60.50,112.40
             59.50,112.00 59.00,112.40 59.00,113.40
             59.00,114.30 57.80,116.90 56.30,119.20
             54.30,122.20 53.50,124.70 53.30,128.50
             53.20,131.50 52.30,135.40 51.10,137.60
             49.70,140.10 49.00,143.30 49.00,146.70
             49.00,146.70 49.00,152.00 49.00,152.00
             49.00,152.00 100.40,152.00 100.40,152.00
             100.40,152.00 151.80,152.00 151.80,152.00
             151.80,152.00 154.50,145.20 154.50,145.20
             155.90,141.50 158.10,136.90 159.20,135.00
             161.50,131.00 162.30,125.50 160.60,124.10
             160.00,123.60 158.10,122.80 156.50,122.40
             154.90,122.00 150.90,120.60 147.80,119.40
             142.20,117.20 142.00,117.20 140.70,119.00
             140.00,120.00 138.20,121.20 136.80,121.50
             134.70,122.00 133.90,121.60 132.10,119.20
             129.80,116.00 129.40,112.50 131.10,111.50
             131.80,111.00 131.50,110.20 130.40,108.90
             128.90,107.20 128.90,106.80 130.20,104.80
             131.50,102.80 131.50,102.30 129.80,99.50
             129.80,99.50 128.00,96.30 128.00,96.30
             128.00,96.30 131.20,90.40 131.20,90.40
             132.90,87.20 135.40,83.10 136.70,81.40
             138.00,79.60 139.50,75.60 140.10,72.20
             141.00,67.20 140.90,65.80 139.60,63.80
             138.70,62.50 137.90,59.00 137.80,56.10
             137.70,53.20 137.20,50.60 136.80,50.40
             136.40,50.10 136.00,49.40 136.00,48.80
             136.00,48.20 136.70,48.30 137.70,49.10
             140.00,51.10 144.20,51.00 143.70,49.00
             143.50,48.10 142.50,47.60 141.20,47.70
             140.00,47.90 139.00,47.50 139.00,46.90
             139.00,46.30 138.10,46.00 137.10,46.30
             135.50,46.70 135.00,46.10 134.50,43.90
             134.10,42.30 133.40,40.80 132.90,40.50
             130.60,39.00 132.10,37.00 135.40,37.00
             137.60,37.00 139.00,36.40 139.40,35.40
             140.30,33.20 140.20,33.00 138.50,33.60
             137.70,34.00 137.00,33.80 137.00,33.20
             137.00,31.80 133.70,32.20 132.70,33.70
             131.90,35.00 129.00,34.40 129.00,32.90
             129.00,32.40 127.70,30.10 126.00,27.80
             121.70,21.80 122.00,21.00 129.40,19.40
             131.80,18.90 134.10,15.90 133.50,14.20
             133.20,13.50 133.80,12.60 134.80,12.30
             138.80,10.80 139.00,7.40 135.20,6.80
             132.20,6.40 130.10,7.80 130.70,9.70
             130.90,10.30 130.10,11.20 128.80,11.50
             127.50,12.00 126.40,11.80 126.20,11.10
             125.50,8.90 124.00,10.10 124.00,12.90
             124.00,17.40 121.90,18.40 118.60,15.50
             117.00,14.10 115.40,13.30 114.90,13.60
             113.40,14.50 108.80,10.80 109.30,8.90
             109.70,7.60 108.90,7.10 105.60,6.60
             103.30,6.20 101.40,6.30 101.20,6.80
             101.00,7.40 99.80,7.50 98.20,7.00
             89.70,4.40 73.70,3.10 72.60,4.90 Z
           M 111.50,25.60
           C 114.90,27.80 118.00,33.10 118.00,36.80
             118.00,40.00 116.40,41.20 113.10,40.30
             111.90,40.00 111.00,40.20 111.00,40.90
             111.00,41.50 109.80,42.00 108.40,42.00
             107.00,42.00 106.10,41.60 106.50,41.00
             106.80,40.40 106.20,40.00 105.20,40.00
             103.90,40.00 103.30,40.60 103.40,41.70
             103.50,43.50 103.10,43.70 98.00,43.90
             96.10,44.00 95.00,44.50 95.00,45.40
             95.00,46.40 96.00,46.70 98.80,46.40
             101.50,46.10 103.10,46.50 104.90,48.00
             107.00,49.80 107.10,50.30 105.90,51.10
             105.20,51.60 103.90,52.00 103.30,52.00
             102.60,52.00 102.00,52.70 102.00,53.50
             102.00,54.30 102.50,55.00 103.00,55.00
             103.60,55.00 104.00,55.40 104.00,56.00
             104.00,56.50 102.60,56.70 100.90,56.50
             98.50,56.20 97.00,56.90 94.00,59.60
             91.50,61.90 90.00,62.60 89.70,61.80
             89.40,60.80 88.60,60.90 86.10,62.30
             84.40,63.30 83.00,63.70 83.00,63.20
             83.00,62.10 78.20,62.40 67.00,64.00
             57.90,65.30 54.80,67.70 54.80,73.50
             54.80,75.60 55.40,77.60 56.00,78.00
             56.70,78.40 57.00,79.20 56.70,79.70
             56.40,80.10 57.30,81.00 58.60,81.70
             59.90,82.30 61.00,82.40 61.00,81.90
             61.00,80.60 70.30,82.10 71.90,83.70
             72.70,84.50 73.60,84.80 73.90,84.30
             74.80,83.00 79.30,80.00 80.30,80.00
             80.80,80.00 80.90,81.10 80.60,82.50
             79.50,86.80 83.30,84.10 84.50,79.70
             84.70,79.30 84.80,77.60 84.90,76.00
             85.00,73.80 85.70,72.70 87.30,72.10
             90.20,70.90 91.10,72.00 92.20,77.50
             95.00,92.50 95.00,91.10 92.10,92.20
             88.50,93.60 81.00,93.80 81.00,92.40
             81.00,91.90 81.90,90.40 82.90,89.30
             85.00,87.10 84.70,86.00 82.10,86.00
             80.70,86.00 76.00,91.90 76.00,93.50
             76.00,93.80 74.90,95.20 73.50,96.60
             71.00,99.00 70.80,99.00 70.60,96.00
             70.50,94.90 68.90,94.40 64.20,94.20
             60.00,94.00 58.00,93.50 58.20,92.80
             58.50,92.10 57.80,90.80 56.70,89.70
             55.40,88.40 55.00,87.10 55.50,85.10
             55.90,83.00 55.70,82.10 54.60,81.70
             53.70,81.30 53.00,80.00 53.00,78.70
             53.00,77.40 52.60,76.00 52.10,75.40
             51.00,74.40 50.30,71.00 49.60,63.00
             49.30,60.00 48.50,55.20 47.90,52.50
             45.00,40.00 48.00,32.20 57.70,27.50
             64.40,24.30 67.50,24.60 78.30,29.80
             78.70,30.00 78.80,29.00 78.40,27.60
             77.70,24.70 79.40,24.00 80.80,26.70
             81.90,28.70 92.50,29.10 96.20,27.30
             103.30,23.80 108.00,23.30 111.50,25.60 Z
           M 61.20,98.10
           C 61.00,98.90 60.80,101.00 60.70,102.70
             60.60,107.30 59.00,104.50 59.00,99.70
             59.00,97.00 59.40,96.00 60.30,96.30
             60.90,96.50 61.30,97.40 61.20,98.10 Z
           M 90.00,110.90
           C 93.20,111.10 88.90,112.70 84.80,112.80
             80.90,113.00 80.80,112.90 82.60,111.60
             83.60,110.80 85.40,110.30 86.50,110.50
             87.60,110.70 89.20,110.90 90.00,110.90 Z
           M 93.00,122.00
           C 93.00,122.50 92.50,123.00 91.90,123.00
             91.40,123.00 91.10,123.40 91.50,123.90
             92.10,124.90 88.20,127.50 87.40,126.70
             87.10,126.50 87.50,125.10 88.10,123.60
             89.30,121.10 93.00,119.90 93.00,122.00 Z
           M 159.50,2.40
           C 158.40,3.60 156.40,5.30 155.00,6.30
             152.90,7.80 152.70,8.20 154.00,9.40
             156.00,11.30 161.80,12.20 162.40,10.70
             162.70,9.90 162.90,9.90 162.90,10.80
             163.00,11.50 164.30,10.70 165.90,8.90
             168.40,6.20 169.10,5.90 170.40,7.00
             171.80,8.10 172.00,7.70 172.00,4.10
             172.00,4.10 172.00,0.00 172.00,0.00
             172.00,0.00 166.80,0.10 166.80,0.10
             162.70,0.20 161.00,0.70 159.50,2.40 Z
           M 141.60,2.90
           C 141.70,6.30 144.50,6.90 144.80,3.60
             144.90,2.10 144.30,1.10 143.20,0.80
             141.80,0.40 141.50,0.90 141.60,2.90 Z
           M 53.80,1.70
           C 49.10,4.10 50.60,7.90 55.40,6.00
             57.00,5.40 58.00,4.30 58.00,3.10
             58.00,0.40 57.00,0.10 53.80,1.70 Z
           M 0.00,1.30
           C 0.00,2.70 9.00,2.90 12.30,1.50
             13.50,1.00 14.00,1.20 14.00,2.40
             14.00,3.30 14.60,4.00 15.30,4.10
             15.90,4.10 15.40,4.60 14.10,5.10
             12.20,5.80 12.00,6.30 13.00,7.50
             14.90,9.70 18.30,7.60 17.40,4.70
             16.90,2.90 17.00,2.70 18.10,3.80
             19.20,4.80 19.20,5.40 18.20,7.10
             16.50,9.80 17.60,11.30 20.10,9.70
             21.80,8.70 22.30,8.80 23.30,10.10
             24.00,11.00 27.40,12.80 31.00,14.30
             34.60,15.70 38.90,17.60 40.50,18.40
             44.30,20.40 46.00,20.40 46.00,18.50
             46.00,17.70 45.40,17.00 44.70,17.00
             42.90,17.00 36.20,11.30 35.50,9.10
             35.20,8.10 33.50,6.90 31.70,6.40
             29.80,5.80 28.00,4.40 27.20,2.70
             27.20,2.70 25.90,0.00 25.90,0.00
             25.90,0.00 12.90,0.00 12.90,0.00
             3.00,0.00 0.00,0.30 0.00,1.30 Z" />
</svg>
