<svg xmlns="http://www.w3.org/2000/svg"
     viewBox="0 0 24 24">
  <path id="Imported Path"
        fill="currentColor" stroke="currentColor" stroke-width="1"
        d="M 2.67,0.27
           C 1.63,0.47 0.70,1.34 0.33,2.43
             0.24,2.67 0.24,3.01 0.24,12.00
             0.24,20.99 0.24,21.33 0.33,21.58
             0.51,22.11 0.73,22.46 1.13,22.87
             1.54,23.27 1.91,23.50 2.43,23.68
             2.67,23.76 3.01,23.76 12.00,23.76
             20.99,23.76 21.33,23.76 21.57,23.68
             22.10,23.50 22.46,23.27 22.86,22.87
             23.27,22.46 23.49,22.10 23.67,21.58
             23.75,21.33 23.76,20.99 23.76,12.00
             23.76,3.01 23.75,2.67 23.67,2.43
             23.50,1.91 23.27,1.55 22.86,1.14
             22.47,0.74 22.18,0.55 21.63,0.34
             21.63,0.34 21.37,0.24 21.37,0.24
             21.37,0.24 12.11,0.24 12.11,0.24
             7.03,0.23 2.78,0.25 2.67,0.27 Z
           M 21.51,1.83
           C 21.81,1.96 22.08,2.24 22.20,2.55
             22.28,2.77 22.29,3.04 22.29,12.00
             22.29,20.97 22.28,21.24 22.20,21.46
             22.08,21.76 21.81,22.05 21.51,22.18
             21.51,22.18 21.27,22.29 21.27,22.29
             21.27,22.29 12.00,22.29 12.00,22.29
             12.00,22.29 2.73,22.29 2.73,22.29
             2.73,22.29 2.49,22.18 2.49,22.18
             2.19,22.05 1.92,21.76 1.80,21.46
             1.72,21.24 1.71,20.97 1.71,12.00
             1.71,3.06 1.72,2.77 1.80,2.55
             1.90,2.29 2.15,2.00 2.35,1.89
             2.73,1.69 2.43,1.70 12.07,1.71
             12.07,1.71 21.27,1.72 21.27,1.72
             21.27,1.72 21.51,1.83 21.51,1.83 Z" />
</svg>
