<svg xmlns="http://www.w3.org/2000/svg"
     viewBox="0 0 24 24">
  <path id="Imported Path"
        fill="currentColor" stroke="currentColor" stroke-width="1"
        d="M 14.06,12.00
           C 14.06,12.00 23.32,2.74 23.32,2.74
             23.91,2.15 23.91,1.27 23.32,0.68
             22.73,0.09 21.85,0.09 21.26,0.68
             21.26,0.68 12.00,9.94 12.00,9.94
             12.00,9.94 2.74,0.68 2.74,0.68
             2.15,0.09 1.27,0.09 0.68,0.68
             0.09,1.27 0.09,2.15 0.68,2.74
             0.68,2.74 9.87,12.00 9.87,12.00
             9.87,12.00 0.68,21.26 0.68,21.26
             0.09,21.85 0.09,22.73 0.68,23.32
             0.90,23.62 1.34,23.76 1.71,23.76
             2.08,23.76 2.45,23.62 2.74,23.32
             2.74,23.32 12.00,14.06 12.00,14.06
             12.00,14.06 21.26,23.32 21.26,23.32
             21.56,23.62 21.92,23.76 22.29,23.76
             22.66,23.76 23.03,23.62 23.32,23.32
             23.91,22.73 23.91,21.85 23.32,21.26
             23.32,21.26 14.06,12.00 14.06,12.00 Z" />
</svg>
